<svg width="134" height="101" viewBox="0 0 134 101" fill="none" xmlns="http://www.w3.org/2000/svg">
<g clip-path="url(#clip0_171_22)">
<path d="M68.4062 95.8382C58.6373 95.8382 49.6026 91.4618 43.6199 83.834L43.1724 83.2486L42.5154 83.5744C39.6404 84.9958 36.4743 85.7311 33.2664 85.7225C21.854 85.7225 12.5704 76.5746 12.5704 65.3305C12.5627 62.5269 13.1433 59.7529 14.2747 57.1871C15.4061 54.6214 17.0632 52.3209 19.1392 50.4339L19.6229 49.9885L19.3472 49.3921C17.2839 44.942 16.2197 40.0951 16.229 35.191C16.229 16.2846 31.8278 0.901685 51.0175 0.901685C56.209 0.88429 61.3387 2.02607 66.0315 4.24351C70.7242 6.46096 74.8615 9.698 78.1405 13.7179L78.6668 14.3631L79.3522 13.891C82.4312 11.7712 86.0842 10.6398 89.8239 10.6476C98.367 10.6476 105.895 16.6088 107.714 24.8219L107.83 25.3475L108.35 25.4939C116.849 27.9032 122.786 35.6757 122.786 44.3956C122.786 52.6512 117.495 60.0854 109.62 62.896L108.911 63.1493L109.034 63.8921C109.171 64.7245 109.24 65.5665 109.242 66.41C109.242 74.5193 103.072 81.2359 94.8911 82.0322L94.4767 82.0731L94.2372 82.4146C91.3336 86.5658 87.4684 89.9544 82.9707 92.2917C78.473 94.629 73.4763 95.8457 68.4062 95.8382Z" fill="#F9BF06"/>
<path d="M51.0175 1.80504C61.3348 1.80504 70.965 6.3546 77.4393 14.2876L78.4934 15.578L79.8658 14.6338C82.9791 12.4993 86.6972 11.4216 90.4708 11.5599C94.2445 11.6982 97.8735 13.0452 100.822 15.4018C103.857 17.8367 105.974 21.2284 106.828 25.0218L107.063 26.073L108.1 26.3673C112.016 27.4858 115.475 29.8179 117.979 33.0272C120.516 36.2757 121.889 40.2803 121.879 44.4004C121.879 52.2688 116.837 59.3678 109.313 62.051L107.895 62.5561L108.137 64.0417C108.266 64.8273 108.332 65.6219 108.333 66.418C108.333 70.1103 106.936 73.6663 104.422 76.3732C101.91 79.0899 98.485 80.7878 94.7997 81.1431L93.9678 81.2233L93.4951 81.9079C90.673 85.9369 86.9181 89.2252 82.5498 91.4928C78.1815 93.7604 73.3293 94.9403 68.4062 94.9318C58.9177 94.9318 50.143 90.6828 44.3305 83.2739L43.4245 82.1203L42.1088 82.7687C39.3582 84.1283 36.3291 84.8313 33.2601 84.8224C22.3456 84.8224 13.4669 76.0789 13.4669 65.3321C13.4597 62.6533 14.0148 60.0027 15.0962 57.5513C16.1777 55.0998 17.7616 52.902 19.7458 51.0996L20.7117 50.2089L20.1602 49.016C18.1529 44.684 17.1183 39.966 17.1287 35.1926C17.1287 16.7804 32.3304 1.80661 51.0175 1.80661V1.80504ZM51.0175 2.36857e-06C31.3031 2.36857e-06 15.3214 15.7559 15.3214 35.1911C15.3159 40.2254 16.4073 45.2006 18.52 49.7714C16.3586 51.7479 14.6326 54.1518 13.4515 56.8304C12.2705 59.509 11.6603 62.4037 11.6597 65.3306C11.6597 77.0908 21.3309 86.6258 33.2601 86.6258C36.6059 86.6301 39.9076 85.8627 42.9077 84.3833C46.0411 88.3522 50.0599 91.5345 54.6436 93.6764C59.2272 95.8183 64.2486 96.8605 69.3072 96.7196C74.3657 96.5788 79.3212 95.259 83.7783 92.8655C88.2354 90.4719 92.0705 87.0709 94.9777 82.9339C103.486 82.1046 110.143 75.0261 110.143 66.4101C110.143 65.5139 110.069 64.6192 109.924 63.7348C117.96 60.8707 123.689 53.2902 123.689 44.3862C123.689 34.9991 117.311 27.0865 108.596 24.6174C106.705 16.1084 99.0224 9.73648 89.8238 9.73648C85.9015 9.72979 82.0702 10.9166 78.8401 13.1388C75.4725 9.02034 71.2276 5.70389 66.4145 3.43099C61.6014 1.15809 56.3414 -0.0140253 51.0175 2.36857e-06Z" fill="#F7AC08"/>
<path d="M33.104 89.3971L14.0562 63.6435L14.9086 60.8077L15.761 59.8902L19.021 59.8147L39.0914 83.4847L40.7285 93.0434L33.104 89.3971Z" fill="#FFE7D2"/>
<path d="M18.6918 60.5434L38.4125 83.8011L39.7817 91.7908L33.5784 88.8244L14.852 63.5051L15.5532 61.176L16.0841 60.6048L18.6918 60.5434ZM19.3489 59.0846L15.4413 59.1711L14.2674 60.438L13.259 63.7821L32.6299 89.97L41.6772 94.2977L39.7707 83.1685L19.3489 59.0909V59.0846Z" fill="#218935"/>
<path d="M14.0562 63.6435L14.9086 60.8077L15.761 59.8902L19.021 59.8147L38.8913 83.2486L35.1713 82.5531L35.2642 86.0687L32.0137 85.3968L32.4218 88.4765L14.0562 63.6435Z" fill="#029A67"/>
<path d="M18.6918 60.5434L37.0275 82.166L36.1861 82.0087L34.4261 81.675L34.4734 83.4612L34.5175 85.1734L33.1562 84.8917L31.163 84.4794L31.3363 85.7887L14.852 63.5051L15.5532 61.176L16.0841 60.6048L18.6918 60.5434ZM19.3489 59.0846L15.4413 59.1711L14.2674 60.438L13.259 63.7821L32.6299 89.97L33.3862 90.2375L32.8631 86.3033L36.0144 86.9548L35.9246 83.4281L39.8117 84.1536L39.777 83.1685L19.3552 59.0909L19.3489 59.0846Z" fill="#218935"/>
<path d="M39.3909 92.2047C39.6062 92.0156 39.8463 91.8568 40.1046 91.7325C40.1692 91.7011 40.2354 91.6727 40.3016 91.646L40.4891 92.735L39.3909 92.2047Z" fill="#029A67"/>
<path d="M41.0313 90.5286C40.573 90.5838 40.1272 90.7151 39.7124 90.9173C38.9887 91.2755 38.3816 91.8316 37.9619 92.5209L41.6773 94.2976L41.0313 90.5208V90.5286Z" fill="#218935"/>
<path d="M15.4412 59.1711L14.2673 60.438L31.4008 84.8224C31.4008 84.8224 34.6403 86.4496 35.6881 86.6668L35.1949 82.5925L15.4412 59.1711Z" fill="#02AA6D"/>
<path d="M18.6918 60.5434L37.0275 82.166L36.1861 82.0087L34.4261 81.675L34.4734 83.4612L34.5175 85.1734L33.1562 84.8917L31.163 84.4794L31.3363 85.7887L14.852 63.5051L15.5532 61.176L16.0841 60.6048L18.6918 60.5434ZM19.3489 59.0846L15.4413 59.1711L14.2674 60.438L13.259 63.7821L32.6299 89.97L33.3862 90.2375L32.8631 86.3033L36.0144 86.9548L35.9246 83.4281L39.8117 84.1536L39.777 83.1685L19.3552 59.0909L19.3489 59.0846Z" fill="#218935"/>
<path d="M15.2018 64.9104C15.0116 64.9103 14.8217 64.893 14.6346 64.8584C13.8854 64.7167 13.216 64.3013 12.7569 63.6932C12.2978 63.0852 12.0821 62.3281 12.1517 61.5697C12.2214 60.8113 12.5715 60.1061 13.1337 59.5916C13.6959 59.0771 14.4299 58.7903 15.1924 58.7871C15.3832 58.7877 15.5736 58.8056 15.7612 58.8406C16.5119 58.9805 17.1833 59.3953 17.6438 60.0038C18.1043 60.6123 18.3208 61.3705 18.2508 62.1301C18.1808 62.8896 17.8294 63.5957 17.2654 64.11C16.7014 64.6242 15.9655 64.9097 15.2018 64.9104Z" fill="#F9BF06"/>
<path d="M15.1922 59.6888C15.3275 59.6897 15.4624 59.7023 15.5955 59.7266C16.1399 59.8298 16.6236 60.1385 16.9462 60.5885C17.2687 61.0385 17.4054 61.5952 17.3278 62.1432C17.2502 62.6912 16.9642 63.1883 16.5294 63.5312C16.0945 63.8742 15.5441 64.0367 14.9924 63.9851C14.4407 63.9334 13.9301 63.6715 13.5666 63.2538C13.2031 62.8361 13.0147 62.2946 13.0404 61.7418C13.0661 61.1889 13.304 60.6672 13.7047 60.2849C14.1054 59.9027 14.6381 59.6892 15.1922 59.6888ZM15.1922 57.8854C14.2049 57.8888 13.2544 58.2595 12.5261 58.9253C11.7978 59.5911 11.3441 60.504 11.2536 61.4859C11.163 62.4678 11.4421 63.4482 12.0363 64.2356C12.6306 65.023 13.4974 65.561 14.4674 65.7444C14.7094 65.7906 14.9552 65.8138 15.2016 65.8137C16.1903 65.8123 17.1429 65.4425 17.873 64.7765C18.603 64.1105 19.0578 63.1964 19.1485 62.2131C19.2392 61.2297 18.9591 60.248 18.3632 59.4601C17.7672 58.6721 16.8983 58.1347 15.9264 57.953C15.6843 57.9081 15.4385 57.8854 15.1922 57.8854Z" fill="#F7AC08"/>
<path d="M101.343 45.8765C101.343 39.9924 97.3443 35.0337 91.8816 33.4852C90.6967 28.1503 85.88 24.1563 80.1147 24.1563C77.656 24.1519 75.2542 24.8957 73.2292 26.2886C71.1184 23.706 68.4574 21.626 65.44 20.2003C62.4227 18.7746 59.1249 18.0391 55.7869 18.0472C43.4292 18.0472 33.4129 27.9237 33.4129 40.1073C33.4088 43.2626 34.0927 46.381 35.4171 49.2458C34.0624 50.4856 32.9806 51.9932 32.2403 53.6728C31.5001 55.3525 31.1176 57.1675 31.1172 59.0027C31.1172 66.3755 37.1802 72.3524 44.6582 72.3524C46.7554 72.3547 48.8248 71.8738 50.7055 70.9471C52.6703 73.4355 55.1904 75.4306 58.0645 76.7731C60.9387 78.1157 64.0873 78.7684 67.2591 78.6793C70.4308 78.5902 73.5377 77.7616 76.3317 76.2598C79.1258 74.7579 81.5295 72.6244 83.3511 70.0296C88.6878 69.5103 92.8569 65.0709 92.8569 59.6731C92.8569 59.1127 92.8111 58.5532 92.7198 58.0003C97.7461 56.211 101.343 51.46 101.343 45.8765Z" fill="#FFD357"/>
<path d="M39.1594 35.8552L35.1951 35.9732C35.1683 35.9732 35.1683 35.9732 35.1683 35.9465C34.7865 35.309 34.3589 34.6999 33.8889 34.1241C32.3936 32.1995 31.3143 30.8493 30.6525 30.0971C30.2649 30.5078 30.0065 30.7816 29.8789 30.9453C29.9419 32.1397 30.0002 33.202 30.0034 34.1855C30.0191 34.7174 29.964 35.5704 29.9797 36.074C29.9791 36.0878 29.9735 36.101 29.9639 36.1111C29.9544 36.1212 29.9416 36.1276 29.9277 36.129L28.3316 36.1763L26.7891 36.2219C26.7753 36.2216 26.7622 36.2163 26.752 36.2071C26.7419 36.1978 26.7355 36.1852 26.7339 36.1715C26.8394 34.8792 26.8626 33.5814 26.8033 32.2861C26.7497 31.4095 26.7071 30.8524 26.6993 30.555C26.6993 30.4228 26.6993 29.8106 26.6993 28.7468C26.715 28.4006 26.6993 27.79 26.6457 26.967C26.5937 26.1172 26.5748 25.505 26.5921 25.1604C26.6194 25.1604 26.6105 24.8677 26.5653 24.2822L26.5385 23.3789L26.5259 22.954L26.5181 22.7148C26.5181 22.6613 26.4582 22.504 26.5181 22.4489C26.5882 22.3751 26.667 22.3101 26.7528 22.2553C27.3295 21.9406 28.256 21.7596 29.5055 21.7218H29.5323V21.7486H29.559V21.7738L29.5937 22.943C29.5937 23.1838 29.6819 24.0855 29.693 24.4837C29.7355 24.9873 29.7324 25.7851 29.7387 26.9024L30.3595 26.273C30.5911 26.0275 30.9535 25.6702 31.3947 25.2579L32.4031 24.298L34.2686 22.5134L35.0706 21.7706C35.1998 21.6337 35.3038 21.5519 35.3574 21.5503C35.4897 21.5503 35.7308 21.5645 36.0775 21.5818C36.9356 21.6099 37.785 21.7636 38.5985 22.0381C38.6047 22.0428 38.6097 22.0489 38.6132 22.0559C38.6166 22.0628 38.6184 22.0705 38.6184 22.0783C38.6184 22.086 38.6166 22.0937 38.6132 22.1007C38.6097 22.1076 38.6047 22.1137 38.5985 22.1184C37.5113 23.1618 36.8117 23.8495 36.5281 24.1485L34.5065 26.232L33.7045 27.0283L32.8238 27.8781L33.3201 28.4226C33.5424 28.6443 33.7527 28.8775 33.9503 29.1214L34.6436 30.0325L35.3085 30.9154L35.9987 31.7463L36.8007 32.7062C36.9945 32.9407 37.2166 33.2523 37.5223 33.6961C38.1526 34.5286 38.6583 35.1785 39.183 35.7734C39.1883 35.7799 39.1919 35.7876 39.1936 35.7958C39.1952 35.8039 39.1949 35.8124 39.1926 35.8205C39.1903 35.8285 39.186 35.8358 39.1803 35.8419C39.1745 35.8479 39.1673 35.8525 39.1594 35.8552Z" fill="#218935"/>
<path d="M43.3946 23.3867C43.3946 23.5724 43.4088 23.8588 43.3946 24.2916C43.3804 24.7433 43.3946 25.4609 43.4324 26.4712C43.4907 27.4799 43.4844 28.2023 43.4718 28.6508C43.434 30.0356 43.4166 31.2584 43.4482 32.2954L43.4986 33.9966C43.5585 35.084 43.5474 35.6427 43.5222 35.671C43.5215 35.6849 43.5159 35.6981 43.5064 35.7082C43.4969 35.7183 43.484 35.7246 43.4702 35.7261L40.2244 35.8221C40.2105 35.8214 40.1973 35.8158 40.1872 35.8063C40.1771 35.7968 40.1707 35.784 40.1693 35.7702C40.1945 35.6899 40.1819 35.2981 40.1897 34.6261C40.1767 34.1736 40.1894 33.7207 40.2276 33.2696C40.2449 32.0185 40.2134 30.983 40.163 30.1851C40.1535 29.8704 40.0542 29.2314 40.0448 28.9387L39.9991 27.3981C39.9991 26.7324 39.9912 26.2288 39.9802 25.8826C39.966 25.431 39.9203 24.7669 39.8683 23.9186C39.8147 23.0421 39.7974 22.4299 39.7864 22.0585V22.0318L39.8116 22.005C40.0464 21.8115 40.5206 21.6651 41.2092 21.5329C41.8811 21.3805 42.5685 21.3066 43.2575 21.3126C43.2827 21.3126 43.2843 21.3378 43.2843 21.3645C43.3142 21.6069 43.3615 22.2977 43.3946 23.3867Z" fill="#218935"/>
<path d="M57.8952 28.2999C57.9003 29.4515 57.6135 30.5856 57.0617 31.5968C56.635 32.3819 56.0697 33.0835 55.3931 33.6678C54.7552 34.1894 54.0267 34.5895 53.244 34.848C52.6206 35.0785 51.9739 35.2405 51.3154 35.3312C50.5985 35.4335 50.0423 35.5027 49.6689 35.5137C49.3238 35.5515 48.6589 35.5704 47.7009 35.5987L44.8017 35.6852C44.788 35.685 44.7748 35.6797 44.7647 35.6704C44.7545 35.6612 44.7481 35.6485 44.7466 35.6349C44.7844 35.1014 44.7844 34.2186 44.7749 33.0005C44.7749 32.8683 44.7749 32.2294 44.7749 31.9902C44.7655 31.644 44.6851 30.7423 44.6741 30.3976C44.6741 30.2639 44.6851 29.8641 44.6914 29.1733L44.641 27.5256C44.6315 27.181 44.6158 26.6758 44.6221 26.0101C44.6221 25.3177 44.6126 24.8141 44.6048 24.4947C44.5827 23.7771 44.5291 22.9005 44.4204 21.9201C44.4211 21.9062 44.4267 21.8931 44.4362 21.883C44.4458 21.8729 44.4586 21.8665 44.4724 21.865L45.1342 21.7391C46.1662 21.5487 47.255 21.4102 48.4225 21.2953C49.0859 21.223 49.7508 21.1757 50.4157 21.138C51.4257 21.0797 52.0906 21.0609 52.4372 21.0766C53.4817 21.1562 54.4816 21.5324 55.3191 22.1609C56.1636 22.7998 56.8033 23.7125 57.2934 24.9479C57.7409 26.0067 57.9465 27.1518 57.8952 28.2999ZM48.8842 32.3915C49.31 32.4053 49.7363 32.3922 50.1605 32.3522C50.8592 32.2739 51.5283 32.0265 52.1095 31.6314C52.7819 31.192 53.3394 30.5985 53.7356 29.9003C54.1153 29.2252 54.2776 28.4226 54.2209 27.4391C54.1787 26.6073 53.8361 25.819 53.2566 25.2201C52.6139 24.5498 51.7444 24.1425 50.8175 24.0776C50.3739 24.0517 49.9291 24.0559 49.4861 24.0902C48.9551 24.1327 48.5045 24.1736 48.1594 24.2366C47.8443 24.2995 47.6867 24.3578 47.6583 24.4113L47.6678 24.726C47.7025 24.9636 47.745 25.494 47.7513 25.7064C47.808 26.7167 47.8364 27.6735 47.8364 28.5768C47.813 29.7031 47.8562 30.8297 47.9656 31.9509L47.9735 32.2168C48.0018 32.2955 48.0302 32.3474 48.1105 32.3459H48.1625L48.8842 32.3915Z" fill="#218935"/>
<path d="M69.5219 33.2711C68.6612 34.2473 67.501 34.9114 66.2225 35.1595C64.9868 35.3869 63.7266 35.4514 62.474 35.3515C61.1127 35.2587 60.1185 34.9172 59.4362 34.379L59.0801 34.0642C59.0517 33.9779 59.0517 33.8847 59.0801 33.7983C59.1385 33.4914 59.2371 33.1935 59.3732 32.9123C59.7009 32.2639 60.1122 31.7997 60.6337 31.518H60.6621C60.9063 31.6754 61.1489 31.7965 61.3932 31.9224C62.4784 32.357 63.6506 32.5311 64.8154 32.4307C65.3465 32.3842 65.8708 32.2786 66.3785 32.116C66.9315 31.913 67.2703 31.6895 67.4231 31.4456C67.6516 31.0931 67.6926 30.6666 67.598 30.1646C67.5019 29.6358 67.2514 29.2708 66.9 29.063C66.7245 28.9717 66.5317 28.918 66.3341 28.9056C66.1366 28.8931 65.9386 28.9221 65.7529 28.9906L65.2251 29.1669C64.9352 29.2818 64.3585 29.565 64.1742 29.65C63.7068 29.887 63.1904 30.0115 62.6663 30.0135C62.079 30.0283 61.5003 29.8701 61.0024 29.5587C60.4889 29.2528 60.0566 28.828 59.7419 28.3202C59.4657 27.8166 59.3043 27.2583 59.2692 26.6852C59.1835 25.5433 59.4689 24.4043 60.0828 23.4373C60.6968 22.4703 61.6067 21.7268 62.6773 21.3173C63.6794 20.9679 64.8737 20.8452 66.2887 20.9427C67.506 21.0258 68.665 21.4944 69.5975 22.2804V22.3465C69.4568 22.84 69.2657 23.3178 69.0271 23.7722C68.7514 24.3136 68.4693 24.6929 68.129 24.8896C68.1022 24.9179 68.1022 24.9179 68.0754 24.8896C67.8436 24.666 67.5879 24.4687 67.3128 24.301C66.1453 23.5913 64.4294 23.1648 63.1736 23.9454C62.4693 24.4175 62.2282 25.4907 62.3953 26.4161C62.4898 26.8882 62.6868 27.2029 62.983 27.3603C63.2327 27.4428 63.4991 27.4623 63.7582 27.4169C64.0149 27.3051 64.278 27.2084 64.546 27.1274C64.9961 26.9666 65.4542 26.829 65.9184 26.7151C66.6574 26.5058 67.8801 26.4161 68.6616 26.7387C69.7393 27.1588 70.3617 28.3643 70.5334 29.6626C70.7362 31.08 70.399 32.2828 69.5219 33.2711Z" fill="#218935"/>
<path d="M10.215 39.7029L8.40771 66.0529L124.773 63.1652V37.8994L10.215 39.7029Z" fill="#029A67"/>
<path d="M7.43848 66.9782L9.37021 38.809L125.677 36.9819V64.0496L7.43848 66.9782ZM11.0593 40.6014L9.37651 65.126L123.87 62.2839V38.8153L11.0593 40.6014Z" fill="#218935"/>
<path d="M32.5431 56.2787C32.4222 56.5661 32.2794 56.8439 32.1161 57.1096C31.5429 58.0391 30.706 58.7774 29.7117 59.231C28.7005 59.6726 27.6055 59.89 26.5021 59.8683C23.6739 59.9155 21.6177 59.1759 20.2831 57.6525C18.7563 55.8963 18.3183 53.2651 18.9218 51.0587C19.208 49.9192 19.7714 48.8678 20.562 47.9979C21.3149 47.143 22.2443 46.4612 23.2863 45.9993C24.5208 45.4316 25.883 45.1982 27.2364 45.3226C28.1377 45.406 29.2579 45.7727 30.6224 46.4242C30.6492 46.4509 30.6492 46.4509 30.6508 46.4761C30.3877 47.5667 29.7763 48.4794 28.8183 49.271C28.7931 49.2978 28.7931 49.2978 28.7663 49.2978C28.3913 49.0403 27.9866 48.829 27.561 48.6683C27.1302 48.5374 26.6829 48.4686 26.2327 48.4637C25.417 48.4768 24.6196 48.7072 23.9228 49.131C22.8309 49.8202 22.1991 50.9454 22.0541 52.5081C21.9779 53.1809 22.0407 53.8622 22.2385 54.5099C22.4691 55.2004 22.8771 55.8185 23.4218 56.3023C23.9163 56.7775 24.537 57.1008 25.2101 57.2339C25.7751 57.3234 26.3531 57.2814 26.8992 57.1112C27.5087 56.9536 28.0749 56.6608 28.5555 56.2545C29.0362 55.8483 29.419 55.3391 29.6755 54.7648C29.6755 54.7396 29.6755 54.7396 29.7007 54.738C31.0305 55.0213 31.9696 55.5249 32.5368 56.2236C32.5699 56.2519 32.5699 56.2519 32.5431 56.2787Z" fill="#FEFEFE"/>
<path d="M43.2686 53.7827C42.8627 54.1925 42.3622 54.4962 41.8111 54.6672C42.0617 55.1393 42.309 55.5516 42.558 55.9403L43.0527 56.6689C43.2661 56.9398 43.4594 57.226 43.631 57.525C43.85 57.8618 44.3227 58.7226 44.5165 59.0594V59.1129H44.4897V59.1396L41.3983 59.2199C41.3715 59.2199 41.3715 59.2199 41.3447 59.1947C41.2612 59.0641 40.9603 58.6234 40.8484 58.4157L40.4041 57.6084L39.9109 56.9081L39.3027 55.8931C39.1379 55.636 38.9986 55.3636 38.8868 55.0795L38.1194 55.0984C37.5916 55.1125 37.0086 55.048 36.4792 55.0622C36.4792 55.0622 36.4792 55.1944 36.4792 55.2195C36.4461 55.9875 36.4319 56.4628 36.4099 56.6217C36.4209 57.0702 36.4587 57.4652 36.4697 57.9137C36.4792 58.2835 36.5217 58.9162 36.5312 59.286C36.5312 59.3127 36.5312 59.3395 36.506 59.3395L35.0532 59.3772L33.6525 59.4134C33.6386 59.4128 33.6254 59.4072 33.6153 59.3976C33.6052 59.3881 33.5988 59.3753 33.5973 59.3615C33.6572 58.5951 33.6651 57.8807 33.6761 57.2732V54.3147L33.7061 51.4348C33.7145 49.5316 33.6124 47.6294 33.4004 45.738C33.4004 45.7112 33.4004 45.7112 33.4256 45.6845C33.8189 45.4725 34.2449 45.3278 34.6861 45.2564C35.0829 45.1542 35.4887 45.091 35.8978 45.0676C36.1877 45.033 36.6367 45.022 37.2449 45.0062C38.2574 44.9778 39.27 45.0574 40.2654 45.2439C41.4078 45.4799 42.2633 45.8277 42.8574 46.3124C43.545 46.8423 44.0237 47.5973 44.2093 48.4448C44.4097 49.4072 44.4528 50.3957 44.3369 51.3718C44.2453 51.8326 44.0972 52.2803 43.8957 52.7048C43.7474 53.096 43.5355 53.4602 43.2686 53.7827ZM36.4729 52.7441C37.2213 52.785 37.9713 52.785 38.7197 52.7441C40.0669 52.6843 40.8736 52.1618 41.1399 51.2035C41.4298 50.1669 41.3542 49.2972 40.913 48.5943C40.3631 47.7633 39.1798 47.8735 38.3038 47.8955L36.2744 48.1332C36.2665 48.8476 36.2744 49.3481 36.2854 49.6124C36.3594 50.4229 36.3973 51.9321 36.4729 52.7441Z" fill="#FEFEFE"/>
<path d="M48.8543 47.8546C48.7503 47.8845 48.7786 47.9899 48.7834 48.1693L48.7991 48.75C48.8422 49.3564 48.8585 49.9901 48.848 50.651L50.0108 50.6211C50.5118 50.5802 50.8821 50.5708 51.0665 50.5661C51.6967 50.5236 52.2025 50.511 52.546 50.5015C52.8022 50.4998 53.0583 50.5108 53.3133 50.5346C53.3401 50.5598 53.3401 50.5598 53.3417 50.5865C53.2645 50.6684 53.2739 51.0586 53.3196 51.7762C53.3637 52.4624 53.4 52.8574 53.4031 52.9361C53.4031 52.9628 53.4031 52.9628 53.3779 52.9896C53.1936 53.021 52.6122 53.0352 51.6337 53.0619C51.3186 53.0698 50.4977 53.117 50.2865 53.1217C49.9163 53.1328 49.3411 53.1737 48.9394 53.1831H48.807C48.807 54.1273 48.8543 55.0039 48.9015 55.7671L50.2487 55.7325C52.1773 55.657 53.181 55.605 53.2598 55.6019C54.6069 55.5421 55.5586 55.5437 56.1684 55.5799C56.2824 56.6409 56.3014 57.71 56.2251 58.7745C56.2244 58.7883 56.2188 58.8015 56.2093 58.8116C56.1998 58.8217 56.1869 58.8281 56.1731 58.8295L53.4252 58.9004L45.6557 59.1002C45.642 59.0999 45.6288 59.0947 45.6187 59.0854C45.6085 59.0761 45.6021 59.0635 45.6006 59.0499C45.6405 58.519 45.671 57.6461 45.692 56.4312C45.692 56.3006 45.692 55.6664 45.692 55.4288C45.7142 55.1734 45.7079 54.9164 45.6731 54.6624C45.6568 54.416 45.6595 54.1687 45.6809 53.9228C45.6724 53.6394 45.6914 53.3558 45.7377 53.0761C45.7629 53.0494 45.7566 52.8117 45.7188 52.338C45.6809 51.8644 45.6731 51.5984 45.6715 51.5732C45.6605 51.1231 45.6715 50.5157 45.703 49.6974C45.7345 48.8791 45.7455 48.2952 45.7377 47.9789C45.7455 47.266 45.6967 46.3958 45.6447 45.4201C45.6179 45.3933 45.6447 45.3666 45.6699 45.3666L46.9068 45.1651C48.8564 44.8504 51.9189 44.6406 56.0943 44.5356C56.1195 44.5356 56.1195 44.5356 56.1479 44.5592C56.2881 44.8992 56.3275 45.4264 56.2929 46.1141C56.2711 46.6435 56.187 47.1685 56.0423 47.6783C56.0423 47.7051 56.0423 47.7051 56.0171 47.7066C54.8811 47.735 53.8758 47.735 52.9761 47.7066C51.6794 47.6862 50.7009 47.6846 50.0675 47.7066C49.6682 47.724 49.2711 47.7766 48.8811 47.864L48.8543 47.8546Z" fill="#FEFEFE"/>
<path d="M72.6116 58.4141L70.8942 58.4582L69.1752 58.5023C69.1484 58.5023 69.1484 58.5023 69.1484 58.4771L68.6883 57.0371L68.2534 55.5941C68.1416 55.3076 67.9982 54.9142 67.8012 54.4704C66.5092 54.5837 64.8453 54.6797 62.838 54.8104C62.5685 55.583 62.2959 56.277 62.0738 56.9427C61.9777 57.2889 61.5522 58.2505 61.4325 58.6738C61.4057 58.7005 61.4057 58.7005 61.3789 58.7005L57.6541 58.7965C57.6005 58.7965 57.599 58.7714 57.6242 58.7178C57.725 58.4786 58.048 57.7044 58.2245 57.3834C58.453 56.9805 58.6783 56.4722 58.954 55.9104L59.8033 53.9606C60.1767 53.0793 60.4777 52.4372 60.6778 52.0375C61.1048 51.1547 61.8831 49.5495 62.2818 48.6147C62.4567 48.1882 62.912 47.1984 63.1074 46.7971C63.265 46.4509 63.4068 46.1031 63.558 45.8088C63.6321 45.5963 63.7329 45.4075 63.807 45.2218C63.8638 45.1077 63.9319 44.9997 64.0102 44.8992C64.158 44.7902 64.3271 44.7136 64.5066 44.6742C64.7429 44.5892 65.006 44.5294 65.2944 44.4428C65.9553 44.3161 66.6258 44.2461 67.2986 44.2335C67.3254 44.2335 67.3254 44.2335 67.3522 44.2587C67.4955 44.7025 67.9824 45.9315 68.8222 47.8908C69.1374 48.6226 69.5029 49.6707 69.9866 51.0036C70.4703 52.3365 70.8375 53.254 71.0376 53.8032L71.8868 55.9481C72.1704 56.8015 72.5931 57.6023 73.1379 58.3181C73.193 58.4519 72.8228 58.4094 72.6116 58.4141ZM66.8385 51.9871C66.5549 51.2286 66.3831 50.7282 66.2996 50.5488L65.3889 48.0891L64.7918 49.5573C64.568 50.0908 64.3947 50.5441 64.2734 50.9438C64.1107 51.3706 63.9719 51.8062 63.8574 52.2484L65.3621 52.1303L66.8385 51.9871Z" fill="#FEFEFE"/>
<path d="M82.6026 43.8936C82.5185 44.4276 82.4789 44.9677 82.4845 45.5082C82.4845 46.2211 82.4356 46.6979 82.4167 46.9891C82.4164 47.0026 82.4111 47.0156 82.4017 47.0255C82.3924 47.0353 82.3798 47.0414 82.3663 47.0426L79.3285 47.1748C79.0386 47.2078 78.7219 47.2157 78.3831 47.2251C78.3658 47.6217 78.3736 47.9128 78.3831 48.097C78.3936 48.4914 78.4461 49.4671 78.5407 51.024C78.6588 52.5804 78.684 53.5294 78.6147 53.9275C78.5596 54.8544 78.5454 55.3297 78.547 55.3816C78.5217 55.4613 78.5338 55.9366 78.5832 56.8074C78.5926 57.1221 78.6383 57.8885 78.6462 58.2064C78.6462 58.2316 78.6462 58.2583 78.621 58.2599L76.9036 58.304L75.2381 58.3465C75.2129 58.3465 75.2113 58.3213 75.2113 58.2945C75.2696 57.5266 75.3311 56.8121 75.3405 56.1779C75.4099 53.7198 75.3615 51.846 75.1956 50.5567C75.0937 49.5223 75.049 48.4831 75.0617 47.4439L73.9587 47.5241L72.5091 47.7208L70.8216 47.9223C70.7948 47.9223 70.7948 47.9223 70.768 47.8971C70.7082 47.6343 70.7223 47.159 70.7838 46.4713C70.8027 46.1802 70.9098 45.1998 70.9776 44.7749V44.7229H71.0044L72.1641 44.6128L75.2255 44.4019L78.2082 44.1659C80.7166 43.9691 82.1678 43.8511 82.59 43.8417C82.6011 43.8417 82.6279 43.8669 82.6026 43.8936Z" fill="#FEFEFE"/>
<path d="M87.2004 45.7821C87.2004 45.9678 87.213 46.2542 87.2004 46.6807C87.1846 47.1307 87.2004 47.842 87.2287 48.8461C87.2823 49.8485 87.2744 50.5614 87.2587 51.0115C87.2145 52.3853 87.1941 53.6002 87.2208 54.631L87.2634 56.3211C87.3185 57.4023 87.3059 57.9562 87.2807 57.9845C87.28 57.9982 87.2743 58.0112 87.2648 58.021C87.2552 58.0309 87.2424 58.0369 87.2287 58.038L84.005 58.1214C83.9912 58.1211 83.978 58.1155 83.968 58.1059C83.9581 58.0963 83.9522 58.0833 83.9514 58.0695C83.975 57.9908 83.9656 57.5974 83.975 56.9333C83.9634 56.4838 83.9781 56.034 84.0192 55.5862C84.0396 54.343 84.0192 53.3138 83.9656 52.5238C83.9656 52.2091 83.8616 51.5796 83.8553 51.2853L83.8143 49.7541C83.8238 49.0931 83.8143 48.5911 83.8033 48.2496C83.7907 47.7996 83.7481 47.148 83.6993 46.2967C83.6505 45.4264 83.6347 44.819 83.6252 44.4491V44.424L83.652 44.3972C83.8852 44.2052 84.3563 44.062 85.0417 43.9377C85.7084 43.7899 86.3899 43.7196 87.0727 43.7284C87.0979 43.7284 87.0995 43.7536 87.0995 43.7788C87.1326 44.0148 87.172 44.7009 87.2004 45.7821Z" fill="#FEFEFE"/>
<path d="M102.449 43.3821C102.275 43.7819 102.079 44.394 101.808 45.1683C101.564 45.9394 101.391 46.4272 101.317 46.6067C100.775 48.1803 100.234 49.7241 99.6637 51.2443L99.2651 52.2578C99.1879 52.3931 98.8145 53.2744 98.6916 53.6206C98.4458 54.3131 98.3213 54.6608 98.2961 54.6876C98.2236 54.9268 97.9479 55.5154 97.847 55.7546C97.6737 56.1826 97.5508 56.5288 97.4248 56.7696C97.3507 56.9569 97.127 57.5171 97.0009 57.7579C97.0009 57.7846 97.0009 57.7846 96.9741 57.7846C94.6485 57.8444 93.4069 57.8775 93.221 57.8555C93.1958 57.8555 93.1957 57.8555 93.1942 57.8287C93.1627 57.5926 92.9909 57.1489 92.7357 56.469C92.5939 56.0488 92.3685 55.5531 92.1149 54.952C91.8911 54.4563 91.6075 53.7512 91.2388 52.7834L90.6086 51.1358L89.9326 49.5621L89.5324 48.4101L88.847 46.4461L88.1411 44.3311C88.1411 44.3059 88.1411 44.3059 88.1663 44.2791C89.0014 43.8605 90.1327 43.6497 91.587 43.6088C91.6138 43.6088 91.6138 43.6088 91.6138 43.6355C91.7257 43.87 91.9872 44.7875 92.129 45.1793L92.3859 45.8859L93.0476 47.9317C93.3081 48.8224 93.4809 49.3722 93.566 49.5809C93.6726 49.8021 93.7668 50.0291 93.8481 50.2608C94.1033 50.9139 94.2814 51.6771 94.5886 52.3286C94.7304 52.6685 94.8754 53.1658 95.0771 53.8205L95.6679 52.1162C96.8229 48.7311 97.461 46.8128 97.6343 46.3596C98.0298 45.3194 98.2268 44.7339 98.2504 44.6537L98.3749 44.3389C98.4269 44.2854 98.4221 44.1265 98.4741 44.073C98.4993 44.0195 98.6033 43.9644 98.8129 43.8794C99.6763 43.5395 100.888 43.3507 102.396 43.3381C102.448 43.3286 102.475 43.3538 102.449 43.3821Z" fill="#FEFEFE"/>
<path d="M107.022 46.3533C106.916 46.3832 106.946 46.487 106.951 46.668L106.967 47.2487C107.009 47.8551 107.025 48.4883 107.016 49.1482L108.177 49.1183C108.68 49.0789 109.05 49.0695 109.234 49.0648C109.864 49.0223 110.37 49.0097 110.714 49.0002C111.138 49.016 111.401 49.0097 111.481 49.0333C111.508 49.0585 111.508 49.0585 111.509 49.0852C111.432 49.1671 111.442 49.5573 111.487 50.2749C111.531 50.9595 111.568 51.3561 111.569 51.4347C111.569 51.4615 111.569 51.4615 111.544 51.4883C111.361 51.5197 110.778 51.5339 109.801 51.5591C109.486 51.5685 108.665 51.6157 108.454 51.6204C108.084 51.6299 107.509 51.6724 107.107 51.6818H106.975C106.975 52.626 107.022 53.5026 107.069 54.2674L108.416 54.2328C110.345 54.1572 111.349 54.1053 111.427 54.1022C112.775 54.0408 113.726 54.0439 114.336 54.0801C114.363 54.0801 114.363 54.1053 114.363 54.1321C114.517 55.1749 114.527 56.2339 114.393 57.2795C114.392 57.2932 114.386 57.3061 114.377 57.316C114.367 57.3258 114.355 57.3319 114.341 57.333L111.593 57.4038L103.823 57.6052C103.81 57.6046 103.796 57.599 103.786 57.5894C103.776 57.5799 103.77 57.5671 103.768 57.5533C103.808 57.0287 103.839 56.1564 103.86 54.9362C103.86 54.8056 103.86 54.1714 103.86 53.9338C103.882 53.6784 103.876 53.4214 103.841 53.1674C103.825 52.921 103.827 52.6737 103.849 52.4278C103.84 52.1444 103.859 51.8608 103.905 51.5811C103.931 51.5543 103.924 51.3167 103.886 50.843C103.849 50.3694 103.841 50.1034 103.839 50.0766C103.828 49.6281 103.839 49.0207 103.871 48.2008C103.902 47.3809 103.913 46.8002 103.905 46.4839C103.905 45.771 103.864 44.8992 103.812 43.9235C103.786 43.8983 103.812 43.8716 103.838 43.87L105.075 43.6544C107.023 43.3396 110.086 43.1298 114.262 43.0249C114.287 43.0249 114.287 43.0249 114.316 43.0501C114.456 43.39 114.495 43.9172 114.461 44.6049C114.439 45.1343 114.355 45.6593 114.21 46.1692C114.21 46.1959 114.21 46.1959 114.185 46.1959C113.049 46.2258 112.044 46.2258 111.144 46.1959C109.847 46.177 108.869 46.1754 108.234 46.1959C107.835 46.2133 107.438 46.2659 107.049 46.3533H107.022Z" fill="#FEFEFE"/>
<path d="M51.7613 76.9256C51.67 77.1436 51.5614 77.3541 51.4367 77.555C51.0024 78.2558 50.3688 78.8114 49.6169 79.1508C48.8528 79.4815 48.026 79.6426 47.1935 79.6229C45.0586 79.6528 43.5081 79.0894 42.5044 77.9374C41.3574 76.6077 41.0328 74.6217 41.4929 72.9567C41.7122 72.0992 42.1397 71.309 42.7376 70.6559C43.308 70.0127 44.0111 69.5005 44.7986 69.1546C45.7308 68.7265 46.7597 68.5517 47.7813 68.6479C48.4604 68.7124 49.3049 68.9925 50.3338 69.4867C50.3543 69.5071 50.3543 69.5071 50.3558 69.526C50.1405 70.3625 49.6513 71.1031 48.9661 71.6301C48.9472 71.6521 48.9472 71.6521 48.9267 71.6521C48.6434 71.4595 48.3382 71.301 48.0176 71.18C47.6933 71.0802 47.3564 71.0272 47.0171 71.0226C46.401 71.0292 45.7981 71.2009 45.2713 71.5199C44.4456 72.0376 43.9666 72.8859 43.8532 74.0646C43.7951 74.572 43.8407 75.086 43.9871 75.5753C44.1599 76.0967 44.4663 76.5638 44.8758 76.9303C45.2497 77.2907 45.7195 77.536 46.2292 77.6369C46.6553 77.7058 47.0915 77.6757 47.5039 77.5487C47.9635 77.4314 48.3907 77.212 48.7535 76.9068C49.1164 76.6016 49.4056 76.2186 49.5995 75.7862C49.5995 75.7673 49.5995 75.7673 49.6184 75.7657C50.6221 75.9829 51.3296 76.3653 51.7597 76.8941C51.7802 76.9051 51.7802 76.9051 51.7613 76.9256Z" fill="#218935"/>
<path d="M55.0339 70.8165C54.9551 70.8385 54.9756 70.9172 54.9787 71.0572L54.9898 71.4947C55.0192 71.9532 55.0302 72.4316 55.0229 72.9299L55.9005 72.9095C56.2787 72.8811 56.5575 72.8749 56.6978 72.8717C57.1705 72.8402 57.5549 72.8324 57.8133 72.8261C58.0069 72.8247 58.2005 72.8336 58.3932 72.8528C58.4136 72.8717 58.4136 72.8717 58.4136 72.8922C58.3553 72.9535 58.3616 73.2525 58.3947 73.7892C58.4278 74.3258 58.453 74.6059 58.4546 74.6657C58.4546 74.6846 58.4546 74.6846 58.4357 74.7051C58.2955 74.7287 57.8574 74.7381 57.1185 74.7554C56.8805 74.7554 56.2629 74.7948 56.1022 74.7979C55.8233 74.7979 55.3853 74.8357 55.0859 74.842H54.9898C54.9898 75.5596 55.0197 76.2174 55.0544 76.7934L56.0707 76.7713C57.5266 76.7178 58.2844 76.6816 58.3443 76.6801C59.3606 76.636 60.0775 76.6407 60.5392 76.669C60.5581 76.669 60.5597 76.6879 60.5597 76.7084C60.6727 77.4946 60.6775 78.2925 60.5738 79.08C60.5735 79.0904 60.5693 79.1004 60.562 79.1079C60.5547 79.1155 60.5449 79.1201 60.5344 79.1209L58.4609 79.1681L52.5964 79.3018C52.5859 79.3015 52.5759 79.2973 52.5684 79.29C52.5608 79.2827 52.5562 79.273 52.5554 79.2625C52.5869 78.8628 52.6121 78.2044 52.6311 77.2875C52.6311 77.1884 52.6311 76.71 52.6311 76.5306C52.649 76.3382 52.6447 76.1444 52.6184 75.953C52.6064 75.7669 52.609 75.5801 52.6263 75.3943C52.6214 75.1805 52.6362 74.9666 52.6704 74.7554C52.6922 74.57 52.688 74.3825 52.6578 74.1983C52.6295 73.8395 52.6247 73.6397 52.6247 73.6208C52.6169 73.2824 52.6248 72.8229 52.6531 72.2045C52.6815 71.586 52.6878 71.1469 52.683 70.9077C52.683 70.3695 52.6563 69.7133 52.6184 68.9768C52.598 68.9563 52.6184 68.9375 52.6374 68.9359L53.5717 68.7785C55.0423 68.5456 57.3532 68.3935 60.5045 68.3221C60.525 68.3221 60.525 68.3221 60.5455 68.341C60.651 68.5975 60.6794 68.9957 60.651 69.5134C60.6332 69.9135 60.5687 70.3102 60.4588 70.6953C60.4588 70.7142 60.4588 70.7142 60.4399 70.7157C59.5828 70.7346 58.8233 70.7315 58.1442 70.7079C57.1657 70.6906 56.4283 70.6874 55.9493 70.6984C55.648 70.7115 55.3485 70.7515 55.0544 70.818L55.0339 70.8165Z" fill="#218935"/>
<path d="M70.494 72.354C70.5381 73.4084 70.5759 74.1653 70.5664 74.6044C70.5664 74.8226 70.5559 75.2423 70.5349 75.8634C70.5349 76.4818 70.5192 76.9398 70.527 77.2797C70.527 77.3977 70.5349 77.6369 70.5633 78.0162C70.5917 78.3954 70.598 78.6457 70.6027 78.8518C70.6023 78.8623 70.5981 78.8723 70.5908 78.8798C70.5836 78.8874 70.5738 78.892 70.5633 78.8927L68.9877 78.9289L68.3905 78.9415C68.3407 78.9227 68.2979 78.8892 68.2676 78.8455L67.9383 78.3939C67.6232 77.9422 67.3805 77.5693 67.2151 77.275C66.9441 76.8228 66.6751 76.41 66.4083 76.0365L65.9971 75.5077C65.6662 75.0356 65.5433 74.8609 65.2093 74.4502C64.8941 73.9985 64.7145 73.7436 64.4656 73.3486C64.2166 72.9536 63.9693 72.5822 63.7818 72.2077C63.7818 72.3871 63.7912 72.6263 63.7818 72.9646L63.7975 73.6413L63.8164 74.4596C63.8445 74.7173 63.8503 74.9768 63.8337 75.2355C63.8416 75.6147 63.7833 76.4944 63.7707 76.8721C63.7707 77.1506 63.7865 77.5488 63.818 78.0665C63.8495 78.5843 63.8574 78.8817 63.859 79.0013C63.859 79.0116 63.8551 79.0216 63.8481 79.0292C63.8411 79.0368 63.8315 79.0414 63.8211 79.0422L62.704 79.069L61.6468 79.0926C61.6363 79.0922 61.6263 79.088 61.6187 79.0808C61.6112 79.0735 61.6066 79.0637 61.6058 79.0532C61.6531 78.4741 61.6594 77.9155 61.6688 77.4182C61.6688 76.2017 61.6688 75.4243 61.6688 75.1048C61.7051 74.0284 61.7082 73.3108 61.6799 72.9331C61.6389 71.9963 61.6242 71.3584 61.6357 71.0195C61.6357 70.0627 61.6168 69.3073 61.5837 68.7691C61.5837 68.7487 61.5837 68.7487 61.6042 68.7282C62.1746 68.4135 62.8647 68.2561 63.7282 68.2419C63.7471 68.2419 63.7471 68.2419 63.7676 68.2608L64.3537 69.4442C64.4167 69.5812 64.7067 70.0139 65.1825 70.7803C65.4519 71.232 65.9278 71.9795 66.1988 72.4705C66.5139 72.9426 66.9441 73.6098 67.2938 74.1008L68.3653 75.5518V75.5376C68.3653 74.436 68.3653 73.6492 68.3306 73.1062C68.2786 71.7324 68.2629 71.0353 68.2629 71.0353C68.2629 69.9588 68.2203 69.1625 68.1888 68.6259C68.1888 68.6055 68.1888 68.6055 68.2077 68.585C68.7781 68.2703 69.5139 68.1129 70.4514 68.0956C70.4703 68.0956 70.4719 68.1145 70.4719 68.1349C70.4719 68.2734 70.4667 68.9312 70.4561 70.1083C70.453 70.5411 70.4498 71.2981 70.494 72.354Z" fill="#218935"/>
<path d="M80.2709 67.9051C80.2074 68.308 80.1768 68.7153 80.1795 69.1231C80.1716 69.6613 80.1401 70.0217 80.1243 70.2405C80.1244 70.2508 80.1205 70.2607 80.1135 70.2683C80.1065 70.2759 80.0968 70.2806 80.0865 70.2814L77.7924 70.3727C77.5734 70.3978 77.3339 70.4041 77.0755 70.4104C77.0629 70.7094 77.0676 70.9282 77.0755 71.0682C77.0818 71.3672 77.1185 72.1016 77.1858 73.2714C77.2724 74.4454 77.2882 75.1598 77.2346 75.462C77.1921 76.1607 77.1795 76.5195 77.181 76.5636C77.1644 76.922 77.1723 77.2811 77.2047 77.6384C77.2047 77.8776 77.2441 78.4552 77.2488 78.6944C77.2488 78.7148 77.2488 78.7337 77.2299 78.7353L75.9331 78.7636L74.6726 78.7919C74.6521 78.7919 74.6521 78.7731 74.6521 78.7526C74.6978 78.1751 74.7467 77.6353 74.7546 77.1569C74.8134 75.301 74.7813 73.8846 74.6584 72.9079C74.5833 72.1271 74.5517 71.3427 74.5639 70.5584L73.7273 70.6182L72.6338 70.7629L71.3591 70.9109C71.3402 70.9109 71.3402 70.9109 71.3197 70.892C71.2785 70.534 71.2833 70.1723 71.3339 69.8156C71.3496 69.5953 71.4331 68.8556 71.4914 68.5362V68.4968H71.5119L72.388 68.4181L74.6994 68.2608L76.951 68.0892C78.8418 67.9476 79.9447 67.8626 80.2598 67.8547C80.2709 67.8658 80.2898 67.8846 80.2709 67.9051Z" fill="#218935"/>
<path d="M88.5618 74.414C88.2537 74.7213 87.8751 74.9488 87.4588 75.0765C87.6463 75.4321 87.8338 75.7453 88.0198 76.0412L88.3916 76.5904C88.5518 76.7951 88.6966 77.0112 88.8249 77.2372C88.9825 77.4937 89.3449 78.1436 89.4898 78.3986V78.4395H89.4694V78.4584L87.1327 78.5119C87.1138 78.5119 87.1138 78.5119 87.0933 78.493C87.0303 78.3954 86.8034 78.0618 86.7199 77.9044L86.3874 77.2938L86.0156 76.7635L85.5586 75.9971C85.4345 75.804 85.329 75.5995 85.2435 75.3865L84.6652 75.3991C84.265 75.4085 83.8254 75.3582 83.4268 75.3676C83.4268 75.3676 83.4268 75.4668 83.4268 75.4872C83.4 76.0663 83.3874 76.4314 83.3701 76.5447C83.3701 76.8831 83.4047 77.1821 83.4126 77.5204C83.4126 77.799 83.4504 78.2774 83.4567 78.5559C83.4567 78.5764 83.4567 78.5953 83.4378 78.5953L82.3349 78.6205L81.2776 78.6456C81.2674 78.6449 81.2578 78.6405 81.2506 78.6333C81.2433 78.6261 81.239 78.6165 81.2382 78.6063C81.2839 78.0272 81.2918 77.489 81.3013 77.0326L81.3107 74.7995L81.3406 72.6262C81.3578 71.1895 81.2926 69.753 81.1453 68.3237C81.1453 68.3049 81.1453 68.3049 81.1642 68.2844C81.4591 68.1267 81.7788 68.0203 82.1096 67.9697C82.4094 67.8935 82.716 67.8465 83.025 67.8296C83.244 67.8044 83.5828 67.7965 84.0413 67.7855C84.8058 67.7674 85.57 67.8301 86.3212 67.9728C87.1831 68.1538 87.8275 68.4182 88.275 68.7864C88.7926 69.1875 89.152 69.7582 89.2897 70.3979C89.4385 71.1226 89.4688 71.8666 89.3795 72.6011C89.3085 72.948 89.1958 73.2851 89.0439 73.6051C88.928 73.8989 88.7651 74.1721 88.5618 74.414ZM83.4347 73.6129C83.9994 73.6437 84.5653 73.6437 85.13 73.6129C86.1479 73.5704 86.7577 73.177 86.9594 72.4563C87.181 71.6726 87.1285 71.0158 86.8018 70.486C86.389 69.8565 85.4924 69.9384 84.8338 69.9541L83.3007 70.1272C83.3007 70.6654 83.3007 71.0447 83.3007 71.2429C83.3512 71.8614 83.3811 72.9976 83.4347 73.6129Z" fill="#218935"/>
<path d="M92.7892 69.9525C92.7104 69.9746 92.7325 70.0533 92.7356 70.1933L92.7451 70.6308C92.7745 71.0893 92.7855 71.5677 92.7782 72.066L93.6558 72.0456C94.034 72.0172 94.3128 72.0109 94.4531 72.0078C94.9258 71.9779 95.3102 71.9684 95.5702 71.9621C95.7633 71.9608 95.9563 71.9697 96.1485 71.9889C96.1689 72.0078 96.1689 72.0078 96.1705 72.0282C96.1106 72.0896 96.1185 72.3886 96.15 72.9253C96.1815 73.4619 96.2083 73.742 96.2099 73.8018C96.2099 73.8223 96.2099 73.8223 96.191 73.8411C96.0523 73.8648 95.6127 73.8742 94.8753 73.8915C94.6359 73.8915 94.0182 73.9308 93.8591 73.934C93.5802 73.9419 93.1406 73.9718 92.8412 73.9781H92.7419C92.7419 74.6957 92.7734 75.3535 92.8065 75.931L93.8244 75.9074C95.2787 75.8539 96.0303 75.8161 96.0965 75.8161C96.8274 75.7755 97.56 75.7719 98.2913 75.8051C98.3118 75.8051 98.3118 75.824 98.3118 75.8445C98.4225 76.6299 98.4251 77.4267 98.3197 78.2129C98.3197 78.2235 98.3156 78.2336 98.3083 78.2413C98.3009 78.2489 98.2909 78.2534 98.2803 78.2538L96.2068 78.301L90.3422 78.4348C90.332 78.4338 90.3223 78.4294 90.3149 78.4222C90.3074 78.4151 90.3026 78.4056 90.3013 78.3954C90.3328 77.9957 90.358 77.3374 90.3769 76.4204C90.3769 76.3213 90.3769 75.8429 90.3769 75.6635C90.3932 75.471 90.3884 75.2774 90.3627 75.0859C90.3515 74.8998 90.3541 74.713 90.3706 74.5273C90.3654 74.3133 90.3807 74.0994 90.4163 73.8884C90.436 73.7023 90.4312 73.5145 90.4021 73.3297C90.3753 72.9725 90.3706 72.7726 90.369 72.7537C90.369 72.4154 90.369 71.9559 90.3974 71.3374C90.4257 70.7189 90.4336 70.2799 90.4273 70.0422C90.4273 69.5025 90.4005 68.8462 90.3627 68.1097C90.3438 68.0893 90.3627 68.0704 90.3832 68.0688L91.3176 67.9114C92.7882 67.6785 95.0991 67.5264 98.2504 67.4551C98.2708 67.4551 98.2708 67.4551 98.2913 67.474C98.3969 67.7305 98.4253 68.1286 98.3985 68.6464C98.3791 69.0463 98.3146 69.4427 98.2062 69.8282C98.2062 69.8487 98.2062 69.8487 98.1858 69.8487C97.3286 69.8676 96.5692 69.8644 95.8901 69.8408C94.9132 69.8235 94.1742 69.8203 93.6952 69.8314C93.3938 69.8437 93.0942 69.8837 92.8002 69.951L92.7892 69.9525Z" fill="#218935"/>
<path d="M87.7519 16.8527L82.5696 2.86255L95.2141 6.246L129.706 38.3148L129.216 42.8613L128.123 44.597L123.163 45.642L87.7519 16.8527Z" fill="#FFE7D2"/>
<path d="M83.7324 3.92168L94.8532 6.89597L128.948 38.5981L128.517 42.6189L127.675 43.9534L123.352 44.8646L88.3616 16.4168L83.7324 3.92168ZM81.4067 1.80505L87.1421 17.2871L122.975 46.4241L128.572 45.2439L129.917 43.1099L130.463 38.0332L95.5749 5.59452L81.4067 1.80505Z" fill="#FF6632"/>
<path d="M87.7946 16.8858L87.73 16.6026H93.5047L92.4238 11.5667L97.2279 11.6596L95.5546 6.56079L129.707 38.3149L129.216 42.8613L128.123 44.5971L123.163 45.642L87.7946 16.8858Z" fill="#FF8969"/>
<path d="M97.1159 8.99846L128.944 38.5982L128.512 42.619L127.671 43.9535L123.347 44.8646L89.471 17.3249H94.3901L94.0245 15.5797L93.3218 12.3064L96.1958 12.3615L98.2315 12.4008L97.6012 10.4683L97.1191 8.99846H97.1159ZM94.4169 5.41357L96.2241 10.9215L91.5256 10.8318L92.6096 15.885H86.8286L87.1437 17.2903L122.975 46.4242L128.572 45.2439L129.918 43.11L130.463 38.0332L95.575 5.59455L94.4169 5.41357Z" fill="#FF6632"/>
<path d="M82.5635 2.86255L86.2016 3.83667C85.8327 4.51115 85.3221 5.09793 84.7048 5.55672C84.4097 5.77363 84.0929 5.95927 83.7594 6.11066L82.5635 2.86255Z" fill="#FF8969"/>
<path d="M83.7324 3.92168L85.0354 4.26947C84.8108 4.5332 84.5571 4.77076 84.2791 4.97763C84.2397 5.00753 84.1988 5.03586 84.1562 5.06576L83.7324 3.92168ZM81.4067 1.80505L83.3511 7.04862C83.9944 6.84661 84.5994 6.53865 85.141 6.13745C86.0847 5.42831 86.8076 4.46623 87.2256 3.36302L81.4067 1.80663V1.80505Z" fill="#FF6632"/>
<path d="M128.572 45.2391L129.918 43.1051L98.0314 12.2748C98.0314 12.2748 93.6338 11.2 92.0676 11.1732L93.8749 16.8952L128.572 45.2391Z" fill="#FF9E88"/>
<path d="M97.1159 8.99846L128.944 38.5982L128.512 42.619L127.671 43.9535L123.347 44.8646L89.471 17.3249H94.3901L94.0245 15.5797L93.3218 12.3064L96.1958 12.3615L98.2315 12.4008L97.6012 10.4683L97.1191 8.99846H97.1159ZM94.4169 5.41357L96.2241 10.9215L91.5256 10.8318L92.6096 15.885H86.8286L87.1437 17.2903L122.975 46.4242L128.572 45.2439L129.918 43.11L130.463 38.0332L95.575 5.59455L94.4169 5.41357Z" fill="#FF6632"/>
<path d="M128.198 46.2242C127.23 46.2242 126.282 45.9373 125.477 45.3997C124.671 44.8621 124.043 44.0979 123.673 43.2039C123.302 42.3099 123.205 41.3262 123.394 40.3771C123.583 39.428 124.05 38.5562 124.735 37.872C125.42 37.1877 126.293 36.7218 127.243 36.533C128.193 36.3442 129.178 36.4411 130.073 36.8114C130.968 37.1817 131.733 37.8088 132.272 38.6134C132.81 39.418 133.097 40.3639 133.097 41.3316C133.096 42.6288 132.579 43.8726 131.661 44.7898C130.743 45.7071 129.497 46.223 128.198 46.2242Z" fill="#F9BF06"/>
<path d="M128.198 37.3407C128.989 37.3407 129.761 37.5747 130.418 38.0133C131.076 38.4518 131.588 39.0751 131.89 39.8043C132.193 40.5336 132.272 41.336 132.117 42.1102C131.963 42.8843 131.583 43.5954 131.024 44.1536C130.465 44.7117 129.753 45.0918 128.978 45.2458C128.203 45.3998 127.399 45.3208 126.669 45.0187C125.939 44.7166 125.315 44.2051 124.876 43.5488C124.437 42.8925 124.203 42.1209 124.203 41.3316C124.204 40.2735 124.625 39.2591 125.374 38.511C126.123 37.7628 127.139 37.3419 128.198 37.3407ZM128.198 35.5356C127.051 35.5353 125.929 35.875 124.974 36.5117C124.019 37.1483 123.275 38.0534 122.836 39.1125C122.397 40.1715 122.281 41.3369 122.505 42.4613C122.729 43.5857 123.281 44.6186 124.093 45.4294C124.904 46.2401 125.938 46.7923 127.064 47.016C128.19 47.2398 129.357 47.1251 130.417 46.6865C131.478 46.2478 132.384 45.505 133.022 44.5518C133.66 43.5986 134 42.478 134 41.3316C134 39.7947 133.389 38.3207 132.301 37.2338C131.213 36.1469 129.737 35.5361 128.198 35.5356Z" fill="#F7AC08"/>
<path d="M124.773 53.9385C126.165 53.9385 127.294 52.8112 127.294 51.4206C127.294 50.03 126.165 48.9027 124.773 48.9027C123.381 48.9027 122.252 50.03 122.252 51.4206C122.252 52.8112 123.381 53.9385 124.773 53.9385Z" fill="#F9BF06"/>
<path d="M124.773 49.8044C125.093 49.8041 125.406 49.8986 125.673 50.076C125.939 50.2534 126.146 50.5057 126.269 50.801C126.392 51.0963 126.424 51.4213 126.362 51.7349C126.3 52.0485 126.146 52.3367 125.919 52.5629C125.693 52.789 125.405 52.9431 125.091 53.0056C124.777 53.0681 124.452 53.0362 124.156 52.9139C123.86 52.7916 123.607 52.5845 123.429 52.3187C123.251 52.0529 123.156 51.7403 123.156 51.4206C123.157 50.9924 123.327 50.5818 123.63 50.2788C123.933 49.9758 124.344 49.8052 124.773 49.8044ZM124.773 47.9994C124.096 47.9994 123.433 48.2 122.87 48.576C122.307 48.9519 121.868 49.4862 121.608 50.1114C121.349 50.7365 121.281 51.4244 121.413 52.088C121.546 52.7517 121.872 53.3613 122.351 53.8398C122.83 54.3182 123.44 54.6441 124.105 54.7761C124.769 54.9081 125.458 54.8403 126.084 54.5814C126.71 54.3225 127.245 53.8839 127.621 53.3213C127.998 52.7587 128.199 52.0973 128.199 51.4206C128.199 50.9711 128.111 50.526 127.939 50.1106C127.767 49.6953 127.514 49.3178 127.196 49C126.878 48.6821 126.5 48.4299 126.085 48.258C125.669 48.086 125.223 47.9976 124.773 47.9978V47.9994Z" fill="#F7AC08"/>
<path d="M18.9123 92.6422L11.1743 62.6034L13.1187 59.9895L14.3634 59.8258L17.1728 60.77L27.2033 91.1802L25.7742 99.5035L18.9123 92.6422Z" fill="#FFE7D2"/>
<path d="M14.291 60.5638L16.5993 61.338L26.4597 91.2383L25.2984 98.0052L19.5615 92.2723L11.9591 62.7575L13.5158 60.6661L14.291 60.5638ZM14.4344 59.0892L12.7217 59.3127L10.3882 62.4491L18.2664 93.0135L26.258 101L27.9518 91.125L17.7448 60.2003L14.436 59.0892H14.4344Z" fill="#FF6632"/>
<path d="M11.1743 62.6034L13.1187 59.9895L14.3634 59.8258L17.1728 60.77L26.844 90.0928L24.5657 87.9793L23.2342 91.0181L20.4154 88.9109L18.8335 92.3431L11.1743 62.6034Z" fill="#FF8969"/>
<path d="M14.291 60.5638L16.5993 61.338L25.2795 87.655L24.3105 86.7564L23.4943 88.6197L22.9381 89.8928L21.5657 88.8652L20.1335 87.7951L19.3803 89.4191L19.0211 90.1965L11.9591 62.7575L13.5158 60.6661L14.291 60.5638ZM14.4344 59.0892L12.7217 59.3127L10.3882 62.4491L18.2664 93.0135L19.0542 93.6115L20.7086 90.0234L23.5447 92.1416L24.832 89.2004L27.7312 91.904L27.9502 91.1329L17.7448 60.2003L14.436 59.0892H14.4344Z" fill="#FF6632"/>
<path d="M24.5911 98.32C24.7128 98.231 24.8401 98.1501 24.9724 98.0776C25.3155 97.8895 25.6887 97.7623 26.0753 97.7015L25.7602 99.5034L24.5911 98.32Z" fill="#FF8969"/>
<path d="M26.6644 96.9398C26.0779 96.9332 25.4966 97.0509 24.9588 97.285C24.4211 97.519 23.9391 97.8643 23.5447 98.2979L26.2516 101.003L26.9433 96.9398C26.8535 96.9398 26.759 96.9398 26.6613 96.9398H26.6644Z" fill="#FF6632"/>
<path d="M12.7217 59.3127L14.4344 59.0892L24.4948 87.6912C24.4948 87.6912 23.9055 90.7269 23.477 91.7073L20.4344 88.9502L12.7217 59.3127Z" fill="#FF9E88"/>
<path d="M14.291 60.5638L16.5993 61.338L25.2795 87.655L24.3105 86.7564L23.4943 88.6197L22.9381 89.8928L21.5657 88.8652L20.1335 87.7951L19.3803 89.4191L19.0211 90.1965L11.9591 62.7575L13.5158 60.6661L14.291 60.5638ZM14.4344 59.0892L12.7217 59.3127L10.3882 62.4491L18.2664 93.0135L19.0542 93.6115L20.7086 90.0234L23.5447 92.1416L24.832 89.2004L27.7312 91.904L27.9502 91.1329L17.7448 60.2003L14.436 59.0892H14.4344Z" fill="#FF6632"/>
<path d="M8.4028 72.0172C7.1448 72.0159 5.90731 71.6988 4.80408 71.095C3.70086 70.4912 2.76731 69.6201 2.08924 68.5618C1.41117 67.5035 1.01035 66.2919 0.92362 65.0384C0.83689 63.785 1.06703 62.5298 1.5929 61.3884C2.19547 60.0882 3.15746 58.987 4.36559 58.2144C5.57373 57.4418 6.97771 57.0301 8.41225 57.0277C9.67019 57.0287 10.9077 57.3456 12.011 57.9492C13.1142 58.5528 14.0478 59.4237 14.7259 60.482C15.404 61.5402 15.8049 62.7517 15.8916 64.0051C15.9783 65.2585 15.7481 66.5136 15.2221 67.6549C14.6198 68.9554 13.6579 70.057 12.4498 70.8298C11.2416 71.6027 9.8375 72.0146 8.4028 72.0172Z" fill="#F9BF06"/>
<path d="M8.41381 56.1244V57.9294C9.51994 57.9316 10.6078 58.2112 11.5776 58.7427C12.5473 59.2741 13.3678 60.0403 13.9639 60.971C14.5599 61.9017 14.9123 62.967 14.9887 64.0691C15.0651 65.1713 14.8631 66.2749 14.4012 67.2788C13.8718 68.423 13.0257 69.3921 11.9629 70.0719C10.9001 70.7517 9.66484 71.1138 8.40278 71.1154C7.29649 71.1137 6.20838 70.8343 5.23841 70.303C4.26843 69.7717 3.44769 69.0054 2.85159 68.0746C2.2555 67.1438 1.90315 66.0783 1.82692 64.976C1.7507 63.8737 1.95304 62.7699 2.41536 61.7661C2.94483 60.6219 3.79085 59.6527 4.85366 58.9729C5.91647 58.2932 7.15174 57.9311 8.41381 57.9294V56.1244ZM8.41381 56.1244C6.34005 56.1221 4.33858 56.8852 2.7939 58.2672C1.24921 59.6491 0.270257 61.5523 0.0450955 63.6113C-0.180066 65.6703 0.364446 67.7397 1.57403 69.4221C2.78361 71.1045 4.57295 72.2811 6.59831 72.726C8.62366 73.1709 10.7422 72.8526 12.5469 71.8324C14.3516 70.8121 15.7152 69.1618 16.3757 67.1985C17.0363 65.2351 16.9472 63.0973 16.1255 61.1956C15.3039 59.2939 13.8077 57.7624 11.9243 56.8955C10.8235 56.3888 9.62595 56.1257 8.41381 56.1244Z" fill="#F7AC08"/>
<path d="M101.964 99.1902C101.093 99.1892 100.236 98.9694 99.4714 98.551C98.7072 98.1327 98.0606 97.5292 97.5909 96.7961C97.1212 96.063 96.8435 95.2237 96.7834 94.3554C96.7233 93.4871 96.8826 92.6176 97.2467 91.8269C97.6641 90.9253 98.3308 90.1617 99.1683 89.6261C100.006 89.0905 100.979 88.8052 101.974 88.8038C102.845 88.8048 103.703 89.0246 104.467 89.443C105.231 89.8614 105.878 90.4651 106.348 91.1984C106.818 91.9318 107.095 92.7713 107.155 93.6398C107.215 94.5083 107.056 95.3779 106.691 96.1687C106.273 97.0699 105.607 97.8331 104.769 98.3684C103.932 98.9037 102.958 99.1889 101.964 99.1902Z" fill="#F9BF06"/>
<path d="M101.974 87.9021V89.7008C102.693 89.7019 103.402 89.8837 104.033 90.2295C104.664 90.5753 105.198 91.074 105.586 91.6797C105.973 92.2855 106.203 92.9789 106.252 93.6962C106.301 94.4135 106.17 95.1317 105.869 95.7848C105.524 96.5295 104.973 97.1604 104.281 97.6029C103.59 98.0454 102.786 98.2811 101.964 98.2822C101.244 98.2806 100.537 98.0984 99.9057 97.7525C99.2748 97.4067 98.741 96.9081 98.3531 96.3025C97.9653 95.697 97.7359 95.0039 97.6861 94.2868C97.6362 93.5697 97.7673 92.8516 98.0676 92.1983C98.4124 91.4536 98.9631 90.8229 99.6548 90.3804C100.347 89.938 101.151 89.7022 101.972 89.7008V87.9021H101.974ZM101.974 87.9021C100.468 87.9001 99.0153 88.4537 97.8938 89.4565C96.7723 90.4594 96.0614 91.8407 95.8976 93.3353C95.7338 94.8298 96.1287 96.332 97.0064 97.5535C97.8842 98.7749 99.1828 99.6293 100.653 99.9525C102.123 100.276 103.661 100.045 104.971 99.3048C106.281 98.5645 107.271 97.3668 107.751 95.9417C108.231 94.5167 108.166 92.9648 107.57 91.5843C106.974 90.2038 105.888 89.0919 104.521 88.4623C103.722 88.0944 102.853 87.9033 101.974 87.9021Z" fill="#F7AC08"/>
<path d="M88.7083 99.1887C88.1766 99.1883 87.6593 99.0159 87.234 98.6972C86.8088 98.3785 86.4983 97.9308 86.3492 97.4211C86.2001 96.9114 86.2204 96.3671 86.407 95.8699C86.5936 95.3727 86.9366 94.9492 87.3844 94.663C87.8322 94.3768 88.3609 94.2432 88.8911 94.2823C89.4213 94.3214 89.9246 94.531 90.3255 94.8798C90.7264 95.2286 91.0034 95.6977 91.1149 96.2169C91.2264 96.7362 91.1665 97.2775 90.9441 97.7598C90.749 98.1879 90.4342 98.5506 90.0375 98.8041C89.6408 99.0576 89.1792 99.1912 88.7083 99.1887Z" fill="#F9BF06"/>
<path d="M88.7084 95.1773C89.0448 95.1782 89.3718 95.2878 89.6406 95.4898C89.9093 95.6918 90.1054 95.9754 90.1993 96.298C90.2932 96.6206 90.28 96.9649 90.1616 97.2793C90.0433 97.5938 89.8261 97.8615 89.5426 98.0424C89.2592 98.2233 88.9247 98.3076 88.5892 98.2827C88.2538 98.2578 87.9354 98.1251 87.6818 97.9044C87.4282 97.6837 87.253 97.3869 87.1824 97.0584C87.1118 96.7299 87.1497 96.3874 87.2903 96.0822C87.4145 95.8112 87.6144 95.5817 87.8659 95.4212C88.1174 95.2607 88.4099 95.176 88.7084 95.1773ZM88.7084 93.3723C87.9411 93.3713 87.1965 93.6324 86.5983 94.1123C86.0001 94.5923 85.5842 95.2621 85.4197 96.0106C85.2552 96.7591 85.352 97.5413 85.694 98.2274C86.036 98.9134 86.6026 99.4619 87.2998 99.782C87.7563 99.9915 88.254 100.096 88.7563 100.088C89.2586 100.081 89.7528 99.9605 90.2026 99.7369C90.6523 99.5132 91.0462 99.1918 91.3552 98.7961C91.6642 98.4005 91.8805 97.9407 91.9882 97.4506C92.0959 96.9604 92.0923 96.4525 91.9776 95.9639C91.8629 95.4754 91.64 95.0187 91.3254 94.6275C91.0108 94.2363 90.6124 93.9205 90.1595 93.7033C89.7066 93.4861 89.2108 93.373 88.7084 93.3723Z" fill="#F7AC08"/>
</g>
<defs>
<clipPath id="clip0_171_22">
<rect width="134" height="101" fill="white"/>
</clipPath>
</defs>
</svg>
